<svg xmlns="http://www.w3.org/2000/svg" id="Layer_1" data-name="Layer 1" class="navbar-logo-svg  h-auto lg:w-56 w-44" viewBox="8.96 6.1 204.82 32.93"><defs><style>       .cls-1 {         fill: #131314;       }        .cls-1, .cls-2 {         stroke-width: 0px;       }        .cls-2 {         fill: #0dffff;       }     </style></defs><g style="margin-left: 1%;"><path class="cls-1" d="M8.96,6.1h7.08v32.28h-7.08V6.1Z" style="fill: rgb(255, 255, 255);"></path><path class="cls-1" d="M32.1,39.03c-3.5,0-6.39-1.14-8.68-3.41-2.29-2.27-3.43-5.1-3.43-8.49s1.14-6.22,3.43-8.49c2.29-2.27,5.18-3.41,8.68-3.41s6.39,1.12,8.68,3.39c2.29,2.27,3.43,5.1,3.43,8.49s-1.15,6.22-3.43,8.49c-2.29,2.27-5.18,3.41-8.68,3.41v.02ZM32.1,32.68c1.6,0,2.87-.52,3.82-1.55.95-1.04,1.42-2.37,1.42-4s-.48-2.94-1.42-3.97c-.95-1.04-2.23-1.56-3.82-1.56s-2.87.52-3.82,1.56-1.43,2.35-1.43,3.97.48,2.94,1.43,3.97,2.22,1.55,3.82,1.55v.02Z" style="fill: rgb(255, 255, 255);"></path><path class="cls-1" d="M70.53,15.84v22.55h-7.08v-2.35c-1.71,1.96-3.93,2.96-6.67,2.98-2.92,0-5.12-.91-6.59-2.7-1.47-1.79-2.2-4.23-2.2-7.32v-13.13h7.06v11.7c0,3.26,1.34,4.9,4.04,4.93,1.36,0,2.42-.5,3.2-1.51.78-1.02,1.17-2.4,1.17-4.15v-10.99h7.08Z" style="fill: rgb(255, 255, 255);"></path><path class="cls-1" d="M99.03,6.1v32.28h-7.08v-2.07c-1.71,1.79-3.87,2.7-6.48,2.7-3.07,0-5.66-1.14-7.78-3.41-2.12-2.27-3.17-5.1-3.17-8.49s1.06-6.22,3.17-8.49c2.12-2.27,4.71-3.41,7.78-3.41,2.68,0,4.84.91,6.5,2.7V6.1h7.06ZM86.72,32.74c1.58,0,2.87-.52,3.89-1.58,1.02-1.06,1.53-2.42,1.53-4.08s-.52-3-1.53-4.04c-1.01-1.04-2.31-1.55-3.87-1.55s-2.79.52-3.78,1.55c-.99,1.04-1.49,2.38-1.49,4.04s.5,3.04,1.49,4.08c.99,1.04,2.25,1.55,3.78,1.55l-.02.02Z" style="fill: rgb(255, 255, 255);"></path><path class="cls-1" d="M138.15,17.76c1.62,1.7,2.44,4.15,2.44,7.32v13.3h-7.06v-11.73c0-3.26-1.19-4.9-3.59-4.9-2.61,0-3.93,1.82-3.95,5.44v11.19h-7.06v-11.73c0-3.26-1.19-4.9-3.59-4.9-2.61,0-3.93,1.82-3.93,5.44v11.19h-7.08V15.84h7.08v2.2c1.62-1.88,3.69-2.83,6.22-2.83,2.98,0,5.16.99,6.54,3,1.88-2.01,4.36-3,7.43-3,2.74,0,4.92.84,6.54,2.55Z" style="fill: rgb(255, 255, 255);"></path><path class="cls-1" d="M156.43,39.03c-3.5,0-6.39-1.14-8.68-3.41s-3.43-5.1-3.43-8.49,1.15-6.22,3.43-8.49c2.29-2.27,5.18-3.41,8.68-3.41s6.39,1.12,8.68,3.39c2.29,2.27,3.43,5.1,3.43,8.49s-1.15,6.22-3.43,8.49-5.18,3.41-8.68,3.41v.02ZM156.43,32.68c1.6,0,2.87-.52,3.82-1.55.95-1.04,1.42-2.37,1.42-4s-.48-2.94-1.42-3.97c-.95-1.04-2.23-1.56-3.82-1.56s-2.87.52-3.82,1.56-1.43,2.35-1.43,3.97.48,2.94,1.43,3.97,2.22,1.55,3.82,1.55v.02Z" style="fill: rgb(255, 255, 255);"></path><path class="cls-1" d="M186.1,15.23c3.07,0,5.66,1.12,7.77,3.39,2.12,2.27,3.17,5.1,3.17,8.49s-1.06,6.22-3.17,8.49c-2.12,2.27-4.71,3.41-7.77,3.41-2.61,0-4.77-.91-6.48-2.7v2.07h-7.08V6.1h7.08v11.81c1.66-1.79,3.82-2.7,6.5-2.7l-.02.02ZM184.78,32.77c1.53,0,2.79-.52,3.78-1.58.99-1.06,1.49-2.42,1.49-4.08s-.5-3-1.49-4.04c-.99-1.04-2.25-1.55-3.78-1.55s-2.87.52-3.89,1.55c-1.01,1.04-1.51,2.38-1.51,4.04s.52,3.04,1.53,4.08c1.01,1.04,2.31,1.55,3.89,1.55l-.02.02Z" style="fill: rgb(255, 255, 255);"></path></g><rect class="cls-2" x="201.91" y="26.51" width="11.87" height="11.87"></rect></svg>